<?xml version="1.0" encoding="UTF-8" ?>
<!DOCTYPE svg PUBLIC "-//W3C//DTD SVG 1.1//EN" "http://www.w3.org/Graphics/SVG/1.1/DTD/svg11.dtd">
<svg width="98pt" height="94pt" viewBox="0 0 98 94" version="1.1" xmlns="http://www.w3.org/2000/svg">
<g id="#eceff1ff">
</g>
<g id="#63b1e0ff">
<path fill="#63b1e0" opacity="1.00" d=" M 40.14 13.73 C 45.33 13.81 50.53 13.56 55.72 13.86 C 55.82 17.88 56.54 21.89 58.14 25.59 L 58.20 25.73 C 52.94 27.30 47.39 28.06 41.95 27.02 C 40.84 22.67 40.14 18.22 40.14 13.73 Z" />
<path fill="#63b1e0" opacity="1.00" d=" M 51.57 43.12 C 57.53 42.31 63.34 40.61 68.67 37.82 C 73.28 40.14 78.28 41.80 83.51 41.53 C 83.37 46.79 83.90 52.13 83.26 57.34 C 71.81 57.38 60.48 52.70 52.41 44.58 C 52.20 44.21 51.78 43.48 51.57 43.12 Z" />
</g>
<g id="#eb5281ff">
<path fill="#eb5281" opacity="1.00" d=" M 16.97 29.90 C 20.65 26.24 24.26 22.51 28.02 18.94 C 31.80 22.89 36.72 25.56 41.95 27.02 C 43.86 32.84 46.88 38.23 50.79 42.95 C 38.20 44.13 25.67 38.91 16.97 29.90 Z" />
<path fill="#eb5281" opacity="1.00" d=" M 58.14 25.59 C 61.76 23.99 65.04 21.73 67.84 18.94 C 71.46 22.61 75.12 26.24 78.77 29.89 C 75.74 32.82 72.47 35.53 68.87 37.73 C 64.25 34.86 60.48 30.67 58.20 25.73 L 58.14 25.59 Z" />
</g>
<g id="#4c48a3ff">
<path fill="#4c48a3" opacity="1.00" d=" M 41.95 27.02 C 47.39 28.06 52.94 27.30 58.20 25.73 C 60.48 30.67 64.25 34.86 68.87 37.73 L 68.67 37.82 C 63.34 40.61 57.53 42.31 51.57 43.12 L 51.02 43.23 L 50.79 42.95 C 46.88 38.23 43.86 32.84 41.95 27.02 Z" />
</g>
<g id="#f7d458ff">
<path fill="#f7d458" opacity="1.00" d=" M 12.17 41.72 C 23.83 41.35 36.03 46.60 43.61 55.64 C 37.60 56.54 31.60 58.05 26.30 61.12 C 26.26 61.14 26.19 61.19 26.15 61.21 C 22.00 58.43 17.04 57.63 12.21 56.98 C 12.19 51.89 12.25 46.81 12.17 41.72 Z" />
<path fill="#f7d458" opacity="1.00" d=" M 36.87 73.18 C 42.09 71.43 47.62 70.77 53.06 71.90 C 54.22 76.25 54.85 80.73 54.89 85.24 C 49.69 85.32 44.49 85.31 39.29 85.24 C 39.25 81.14 38.34 77.12 36.91 73.29 L 36.87 73.18 Z" />
</g>
<g id="#7ca85bff">
<path fill="#7ca85b" opacity="1.00" d=" M 26.30 61.12 C 31.60 58.05 37.60 56.54 43.61 55.64 L 43.98 55.57 L 44.09 55.79 C 47.93 60.64 51.25 65.95 53.06 71.90 C 47.62 70.77 42.09 71.43 36.87 73.18 C 34.61 68.22 30.88 64.05 26.30 61.12 Z" />
</g>
<g id="#000000ff">
<path fill="#000000" opacity="1.00" d=" M 44.09 55.79 C 56.89 54.77 69.71 60.11 78.49 69.36 C 75.16 73.31 71.23 76.71 67.70 80.48 C 63.62 76.47 58.67 73.23 53.06 71.90 C 51.25 65.95 47.93 60.64 44.09 55.79 Z" />
<path fill="#000000" opacity="1.00" d=" M 26.15 61.21 C 26.19 61.19 26.26 61.14 26.30 61.12 C 30.88 64.05 34.61 68.22 36.87 73.18 L 36.91 73.29 C 33.33 74.81 30.20 77.13 27.34 79.75 C 23.87 75.85 20.00 72.34 16.52 68.46 C 19.55 65.83 22.56 63.09 26.15 61.21 Z" />
</g>
</svg>
